# AST/ASF file generated using VICON BodyLanguage
# -----------------------------------------------
:version 1.10
:name VICON
:units
  mass 1.0
  length 0.45
  angle deg
:documentation
   .ast/.asf automatically generated from VICON data using
   VICON BodyBuilder and BodyLanguage model FoxedUp or BRILLIANT.MOD
:root
   order TX TY TZ RX RY RZ
   axis XYZ
   position 0 0 0  
   orientation 0 0 0 
:bonedata
  begin
     id 1 
     name lhipjoint
     direction 0.584852 -0.759097 0.285867 
     length 2.43633 
     axis 0 0 0  XYZ
  end
  begin
     id 2 
     name lfemur
     direction 0.34202 -0.939693 0  
     length 7.14704  
     axis 0 0 20  XYZ
    dof rx ry rz
    limits (-160.0 20.0)
           (-70.0 70.0)
           (-60.0 70.0)
  end
  begin
     id 3 
     name ltibia
     direction 0.342022 -0.939692 0   
     length 7.68483   
     axis 0 0 20   XYZ
    dof rx
    limits (-10.0 170.0)
  end
  begin
     id 4 
     name lfoot
     direction 0.0999605 -0.274639 0.956337   
     length 2.40452   
     axis -90 7.62852e-016 20   XYZ
    dof rx rz
    limits (-45.0 90.0)
           (-70.0 20.0)
  end
  begin
     id 5 
     name ltoes
     direction 1.53468e-011 -4.21881e-011 1   
     length 1.19837   
     axis -90 7.62852e-016 20   XYZ
    dof rx
    limits (-90.0 20.0)
  end
  begin
     id 6 
     name rhipjoint
     direction -0.569886 -0.769002 0.289597   
     length 2.40495  
     axis 0 0 0  XYZ 
  end
  begin
     id 7 
     name rfemur
     direction -0.34202 -0.939693 0   
     length 7.45086   
     axis 0 0 -20   XYZ
    dof rx ry rz
    limits (-160.0 20.0)
           (-70.0 70.0)
           (-70.0 60.0)
  end
  begin
     id 8 
     name rtibia
     direction -0.34202 -0.939693 0   
     length 7.76831   
     axis 0 0 -20   XYZ
    dof rx
    limits (-10.0 170.0)
 end
 begin
     id 9 
     name rfoot
     direction -0.0798572 -0.219406 0.97236   
     length 2.35911  
     axis -90 -7.62852e-016 -20   XYZ
    dof rx rz
    limits (-45.0 90.0)
           (-20.0 70.0)
  end
  begin
     id 10 
     name rtoes
     direction -1.53469e-011 -4.21728e-011 1   
     length 1.18261   
     axis -90 -7.62852e-016 -20   XYZ
    dof rx
    limits (-90.0 20.0)
  end
  begin
     id 11 
     name lowerback
     direction 0.0242088 0.999437 0.0232389   
     length 2.1561   
     axis 0 0 0   XYZ
    dof rx ry rz
    limits (-20.0 45.0)
           (-30.0 30.0)
           (-30.0 30.0)
  end
  begin
     id 12 
     name upperback
     direction -0.0356893 0.999013 -0.0264323   
     length 2.14431   
     axis 0 0 0   XYZ
    dof rx ry rz
    limits (-20.0 45.0)
           (-30.0 30.0)
           (-30.0 30.0)
  end
  begin
     id 13 
     name thorax
     direction -0.0472163 0.998194 -0.0371284   
     length 2.16169   
     axis 0 0 0   XYZ
    dof rx ry rz
    limits (-20.0 45.0)
           (-30.0 30.0)
           (-30.0 30.0)
  end
  begin
     id 14 
     name lowerneck
     direction 0.00863244 0.999921 0.00911972   
     length 1.58651   
     axis 0 0 0   XYZ
    dof rx ry rz
    limits (-20.0 45.0)
           (-30.0 30.0)
           (-30.0 30.0)
  end
  begin
     id 15 
     name upperneck
     direction 0.149523 0.979068 -0.138086   
     length 1.57486   
     axis 0 0 0   XYZ
    dof rx ry rz
    limits (-20.0 45.0)
           (-30.0 30.0)
           (-30.0 30.0)
  end
  begin
     id 16
     name head
     direction 0.0445219 0.997708 -0.0509576  
     length 1.6019  
     axis 0 0 0   XYZ
    dof rx ry rz
    limits (-20.0 45.0)
           (-30.0 30.0)
           (-30.0 30.0)
  end
  begin
     id 17 
     name lclavicle
     direction 0.911271 0.381667 -0.154644  
     length 3.80848  
     axis 0 0 0   XYZ
    dof ry rz
    limits (-20.0 10.0)
           (0.0 20.0)
  end
  begin
     id 18 
     name lhumerus
     direction 1 -4.49003e-011 2.1308e-027   
     length 5.19069   
     axis 180 -30 -90   XYZ
    dof rx ry rz
    limits (-60.0 90.0)
           (-90.0 90.0)
           (-90.0 90.0)
  end
  begin
     id 19
     name lradius
     direction 1 -4.48914e-011 4.01554e-027   
     length 3.30016   
     axis 180 -30 -90   XYZ
    dof rx
    limits (-10.0 170.0)
  end
  begin
     id 20
     name lwrist
     direction 1 -4.49003e-011 1.1934e-026   
     length 1.65008   
     axis -8.46377e-015 90 90   XYZ
    dof ry
    limits (-180.0 0.0)
 end
  begin
     id 21 
     name lhand
     direction 1 -4.49034e-011 2.38659e-026   
     length 0.707698   
     axis -1.52313e-014 90 90   XYZ
    dof rx rz
    limits (-90.0 90.0)
           (-45.0 45.0)
  end
  begin
     id 22 
     name lfingers
     direction 1 -4.48691e-011 4.77775e-026   
     length 0.570564   
     axis -3.04623e-014 90 90   XYZ
    dof rx
    limits (0.0 90.0)
  end
  begin
     id 23
     name lthumb
     direction 0.707107 -6.34832e-011 0.707107   
     length 0.819219   
     axis -90 45 -1.62303e-014   XYZ
    dof rx rz
    limits (-45.0 45.0)
           (-45.0 45.0)
  end
  begin
     id 24 
     name rclavicle
     direction -0.815579 0.573708 -0.0754329   
     length 3.54371  
     axis 0 0 0   XYZ 
    dof ry rz
    limits (-10.0 20.0)
           (-20.0 0.0)
  end
  begin
     id 25 
     name rhumerus
     direction -1 -4.48956e-011 3.05351e-028  
     length 5.23924   
     axis 180 30 90   XYZ
    dof rx ry rz
    limits (-90.0 60.0)
           (-90.0 90.0)
           (-90.0 90.0)
  end
  begin
     id 26 
     name rradius
     direction -1 -4.49013e-011 3.53849e-027   
     length 3.32953   
     axis 180 30 90   XYZ
    dof rx
    limits (-10.0 170.0)
  end
  begin
     id 27 
     name rwrist
     direction -1 -4.48901e-011 1.19374e-026   
     length 1.66477   
     axis -8.46377e-015 -90 -90   XYZ
    dof ry
    limits (-180.0 0.0)
  end
  begin
     id 28
     name rhand
     direction -1 -4.48877e-011 2.38764e-026   
     length 0.607414   
     axis -1.52313e-014 -90 -90   XYZ
    dof rx rz
    limits (-90.0 90.0)
           (-45.0 45.0)
  end
  begin
     id 29
     name rfingers
     direction -1 -4.48882e-011 4.77521e-026   
     length 0.489712   
     axis -3.04623e-014 -90 -90   XYZ
    dof rx
    limits (0.0 90.0)
  end
  begin
     id 30
     name rthumb
     direction -0.707107 -6.34974e-011 0.707107   
     length 0.703132   
     axis -90 -45 1.62303e-014   XYZ
    dof rx rz
    limits (-45.0 45.0)
           (-45.0 45.0)
  end
:hierarchy
  begin
    root lhipjoint rhipjoint lowerback
    lhipjoint lfemur
    lfemur ltibia
    ltibia lfoot
    lfoot ltoes
    rhipjoint rfemur
    rfemur rtibia
    rtibia rfoot
    rfoot rtoes
    lowerback upperback
    upperback thorax
    thorax lowerneck lclavicle rclavicle
    lowerneck upperneck
    upperneck head
    lclavicle lhumerus
    lhumerus lradius
    lradius lwrist
    lwrist lhand lthumb
    lhand lfingers
    rclavicle rhumerus
    rhumerus rradius
    rradius rwrist
    rwrist rhand rthumb
    rhand rfingers
  end

#!OML:ASF E:\VariousWalksJay\Project 1\Capture day 1\Session 1\Actor2.ASF
:FULLY-SPECIFIED
:DEGREES
201
root 28.6937 15.1879 -27.6467 20.4021 -44.1559 -1.33238
lowerback 40.5061 -2.67742 3.65288
upperback 17.3954 -3.13969 -0.733376
thorax -0.282534 -1.6965 -1.58229
lowerneck -3.30269 3.33797 1.64037
upperneck -30.6585 3.68014 -2.78075
head -8.97407 1.53443 -1.4344
rclavicle -1.55052e-014 2.26615e-014
rhumerus -5.7956 25.1066 -72.5145
rradius 107.026
rwrist 0.984062
rhand -35.2289 -9.47278
rfingers 7.12502
rthumb -8.36571 -39.2871
lclavicle -1.55052e-014 2.26615e-014
lhumerus 63.3469 -1.94361 41.2051
lradius 75.7426
lwrist 53.3107
lhand -33.5348 13.0493
lfingers 7.12502
lthumb -6.73045 42.9223
rfemur -65.2806 0.44395 19.8165
rtibia 74.9298
rfoot -27.4855 -10.9609
rtoes -14.7825
lfemur -65.035 3.09298 -29.8994
ltibia 70.8973
lfoot -26.3972 18.2584
ltoes -5.01221
202
root 28.7017 15.172 -27.6318 20.1995 -44.1702 -1.13565
lowerback 40.5649 -2.68297 3.60846
upperback 17.4833 -3.17007 -0.784967
thorax -0.204995 -1.7103 -1.6048
lowerneck -3.24204 3.3197 1.65916
upperneck -30.7588 3.66108 -2.75724
head -9.02201 1.51887 -1.43132
rclavicle 1.11319e-014 -5.80451e-014
rhumerus -5.57435 25.0364 -72.3036
rradius 107.123
rwrist 0.84157
rhand -35.2257 -9.56887
rfingers 7.12502
rthumb -8.36259 -39.3833
lclavicle 1.11319e-014 -5.80451e-014
lhumerus 63.526 -1.74764 41.0267
lradius 75.6941
lwrist 53.463
lhand -33.5424 13.1319
lfingers 7.12502
lthumb -6.73786 43.0047
rfemur -65.3883 0.303606 19.6138
rtibia 75.2752
rfoot -27.483 -10.8351
rtoes -15.0422
lfemur -64.9366 2.71961 -29.9385
ltibia 70.9827
lfoot -26.511 18.4121
ltoes -4.87304
203
root 28.7099 15.1555 -27.6168 19.9954 -44.1778 -0.929917
lowerback 40.6149 -2.68969 3.56354
upperback 17.573 -3.20222 -0.839117
thorax -0.123018 -1.72463 -1.62954
lowerneck -3.17797 3.29954 1.67877
upperneck -30.861 3.64111 -2.72774
head -9.07155 1.50214 -1.42632
rclavicle -5.56597e-015 -1.87852e-014
rhumerus -5.35128 24.9638 -72.0958
rradius 107.22
rwrist 0.693932
rhand -35.2221 -9.67396
rfingers 7.12502
rthumb -8.35916 -39.4886
lclavicle -5.56597e-015 -1.87852e-014
lhumerus 63.711 -1.54233 40.8255
lradius 75.6395
lwrist 53.6293
lhand -33.567 13.2096
lfingers 7.12502
lthumb -6.76157 43.0816
rfemur -65.5222 0.156219 19.4014
rtibia 75.6528
rfoot -27.4529 -10.6906
rtoes -15.3237
lfemur -64.8504 2.36333 -29.9994
ltibia 71.0745
lfoot -26.6275 18.543
ltoes -4.73153
204
root 28.7181 15.1384 -27.6019 19.7922 -44.1795 -0.718598
lowerback 40.6563 -2.69687 3.51875
upperback 17.6644 -3.2351 -0.895873
thorax -0.0369354 -1.73896 -1.65722
lowerneck -3.11151 3.27748 1.70142
upperneck -30.964 3.62015 -2.69295
head -9.12199 1.48401 -1.41997
rclavicle 1.98785e-014 2.48481e-015
rhumerus -5.12626 24.889 -71.8932
rradius 107.316
rwrist 0.542985
rhand -35.2186 -9.7877
rfingers 7.12502
rthumb -8.35577 -39.6024
lclavicle 1.98785e-014 2.48481e-015
lhumerus 63.9016 -1.32813 40.5966
lradius 75.5794
lwrist 53.8108
lhand -33.6129 13.281
lfingers 7.12502
lthumb -6.80594 43.1516
rfemur -65.6865 0.00576763 19.1802
rtibia 76.0676
rfoot -27.3844 -10.5284
rtoes -15.6475
lfemur -64.7783 2.03122 -30.0826
ltibia 71.1743
lfoot -26.7458 18.6525
ltoes -4.59418
205
root 28.7264 15.1206 -27.5871 19.5933 -44.1763 -0.506095
lowerback 40.6897 -2.70395 3.47524
upperback 17.7569 -3.26764 -0.955255
thorax 0.0525385 -1.75273 -1.6888
lowerneck -3.04378 3.25357 1.7286
upperneck -31.0664 3.5982 -2.65349
head -9.17265 1.46439 -1.41267
rclavicle 5.24792e-014 7.08667e-014
rhumerus -4.89896 24.8125 -71.6979
rradius 107.408
rwrist 0.390752
rhand -35.2163 -9.90949
rfingers 7.12502
rthumb -8.35355 -39.7243
lclavicle 5.24792e-014 7.08667e-014
lhumerus 64.0977 -1.10478 40.3379
lradius 75.514
lwrist 54.0077
lhand -33.6799 13.3475
lfingers 7.12502
lthumb -6.87061 43.2161
rfemur -65.8857 -0.142622 18.9507
rtibia 76.5242
rfoot -27.2649 -10.348
rtoes -16.0325
lfemur -64.7214 1.72865 -30.1868
ltibia 71.2821
lfoot -26.8645 18.7433
ltoes -4.46445
206
root 28.7348 15.1023 -27.5724 19.4006 -44.1694 -0.296287
lowerback 40.7163 -2.71075 3.43472
upperback 17.8502 -3.29903 -1.01727
thorax 0.144727 -1.76548 -1.72537
lowerneck -2.97586 3.2275 1.76097
upperneck -31.168 3.57456 -2.61026
head -9.22313 1.44292 -1.40479
rclavicle -4.65156e-014 3.45885e-014
rhumerus -4.6692 24.7346 -71.512
rradius 107.498
rwrist 0.239177
rhand -35.2162 -10.0384
rfingers 7.12502
rthumb -8.35343 -39.8532
lclavicle -4.65156e-014 3.45885e-014
lhumerus 64.2986 -0.872731 40.0496
lradius 75.4441
lwrist 54.2192
lhand -33.7676 13.4091
lfingers 7.12502
lthumb -6.95521 43.2749
rfemur -66.124 -0.284096 18.7129
rtibia 77.028
rfoot -27.0795 -10.1487
rtoes -16.4996
lfemur -64.6795 1.46043 -30.3109
ltibia 71.3978
lfoot -26.9826 18.8178
ltoes -4.34303
207
root 28.7433 15.0839 -27.5579 19.215 -44.1602 -0.0920669
lowerback 40.7384 -2.71712 3.3985
upperback 17.9442 -3.32865 -1.08213
thorax 0.238647 -1.77683 -1.76795
lowerneck -2.90946 3.19924 1.79891
upperneck -31.2679 3.54884 -2.5644
head -9.2729 1.41948 -1.39669
rclavicle -2.90226e-014 7.59357e-014
rhumerus -4.43646 24.656 -71.3379
rradius 107.583
rwrist 0.0901193
rhand -35.2185 -10.1717
rfingers 7.12502
rthumb -8.35567 -39.9865
lclavicle -2.90226e-014 7.59357e-014
lhumerus 64.5041 -0.631559 39.7332
lradius 75.3702
lwrist 54.4442
lhand -33.87 13.4676
lfingers 7.12502
lthumb -7.05412 43.3301
rfemur -66.4042 -0.41442 18.4656
rtibia 77.5826
rfoot -26.813 -9.92763
rtoes -17.0602
lfemur -64.6492 1.22684 -30.4525
ltibia 71.5189
lfoot -27.0993 18.881
ltoes -4.22994
208
root 28.7519 15.0654 -27.5435 19.036 -44.1497 0.104444
lowerback 40.7596 -2.72342 3.36795
upperback 18.0384 -3.35639 -1.14949
thorax 0.332975 -1.78671 -1.81677
lowerneck -2.84596 3.16868 1.84135
upperneck -31.3665 3.52043 -2.51705
head -9.32176 1.39399 -1.38852
rclavicle 6.24184e-014 -2.20651e-014
rhumerus -4.2006 24.5774 -71.1755
rradius 107.665
rwrist -0.0569655
rhand -35.2232 -10.3071
rfingers 7.12502
rthumb -8.36018 -40.1217
lclavicle 6.24184e-014 -2.20651e-014
lhumerus 64.7129 -0.380784 39.3922
lradius 75.2937
lwrist 54.6801
lhand -33.9766 13.526
lfingers 7.12502
lthumb -7.15701 43.3849
rfemur -66.7293 -0.530742 18.2072
rtibia 78.1922
rfoot -26.4499 -9.68065
rtoes -17.7146
lfemur -64.6267 1.02759 -30.6094
ltibia 71.6434
lfoot -27.2148 18.9347
ltoes -4.12177
209
root 28.7607 15.0473 -27.5289 18.8616 -44.1394 0.291201
lowerback 40.7845 -2.72972 3.34432
upperback 18.133 -3.38187 -1.21904
thorax 0.42645 -1.79494 -1.87213
lowerneck -2.78651 3.13568 1.88743
upperneck -31.4643 3.48857 -2.46974
head -9.36971 1.3663 -1.38059
rclavicle -2.3059e-014 -9.2733e-014
rhumerus -3.96154 24.4992 -71.0242
rradius 107.746
rwrist -0.202608
rhand -35.2288 -10.4394
rfingers 7.12502
rthumb -8.36554 -40.2538
lclavicle -2.3059e-014 -9.2733e-014
lhumerus 64.9251 -0.121698 39.0349
lradius 75.2144
lwrist 54.9194
lhand -34.0703 13.5895
lfingers 7.12502
lthumb -7.24746 43.4454
rfemur -67.0999 -0.631083 17.9362
rtibia 78.8593
rfoot -25.9757 -9.40295
rtoes -18.4488
lfemur -64.6052 0.861123 -30.7785
ltibia 71.7686
lfoot -27.3296 18.9818
ltoes -4.01667
210
root 28.7697 15.0297 -27.5142 18.6906 -44.1279 0.468253
lowerback 40.816 -2.73689 3.32833
upperback 18.2278 -3.40574 -1.28961
thorax 0.518007 -1.80184 -1.93285
lowerneck -2.73121 3.10018 1.93487
upperneck -31.5633 3.45277 -2.42306
head -9.41752 1.33645 -1.37271
rclavicle -9.93923e-015 2.56432e-014
rhumerus -3.71956 24.422 -70.8816
rradius 107.828
rwrist -0.349494
rhand -35.2338 -10.5668
rfingers 7.12502
rthumb -8.37045 -40.3809
lclavicle -9.93923e-015 2.56432e-014
lhumerus 65.1398 0.146364 38.6683
lradius 75.1329
lwrist 55.156
lhand -34.1427 13.658
lfingers 7.12502
lthumb -7.31734 43.5115
rfemur -67.5195 -0.716768 17.6519
rtibia 79.5853
rfoot -25.3768 -9.09197
rtoes -19.2343
lfemur -64.5813 0.72199 -30.9567
ltibia 71.892
lfoot -27.4437 19.0233
ltoes -3.9125
211
root 28.7788 15.0127 -27.4994 18.5206 -44.1139 0.63617
lowerback 40.858 -2.74555 3.31955
upperback 18.3226 -3.42873 -1.36
thorax 0.606578 -1.80789 -1.99706
lowerneck -2.6802 3.0625 1.98239
upperneck -31.6651 3.41306 -2.37808
head -9.46579 1.30466 -1.36506
rclavicle 1.70955e-014 -2.01766e-014
rhumerus -3.47436 24.3463 -70.7434
rradius 107.916
rwrist -0.501172
rhand -35.2369 -10.686
rfingers 7.12502
rthumb -8.37336 -40.5
lclavicle 1.70955e-014 -2.01766e-014
lhumerus 65.3564 0.422013 38.2998
lradius 75.0499
lwrist 55.3815
lhand -34.1832 13.7332
lfingers 7.12502
lthumb -7.35645 43.5853
rfemur -67.9894 -0.790016 17.3541
rtibia 80.3694
rfoot -24.6429 -8.74674
rtoes -20.023
lfemur -64.5504 0.604051 -31.1406
ltibia 72.0113
lfoot -27.5572 19.0612
ltoes -3.80825
212
root 28.7881 14.9965 -27.4842 18.3485 -44.0968 0.795609
lowerback 40.9139 -2.75624 3.31734
upperback 18.4178 -3.45159 -1.42937
thorax 0.691527 -1.81356 -2.06318
lowerneck -2.63318 3.02309 2.02887
upperneck -31.7714 3.36974 -2.33561
head -9.51519 1.27124 -1.35777
rclavicle -3.22031e-014 1.78906e-014
rhumerus -3.22574 24.2726 -70.6055
rradius 108.012
rwrist -0.660299
rhand -35.2349 -10.7939
rfingers 7.12502
rthumb -8.37143 -40.608
lclavicle -3.22031e-014 1.78906e-014
lhumerus 65.5742 0.704832 37.9354
lradius 74.966
lwrist 55.5883
lhand -34.1852 13.816
lfingers 7.12502
lthumb -7.3583 43.668
rfemur -68.5086 -0.853636 17.0437
rtibia 81.2081
rfoot -23.7665 -8.37097
rtoes -20.7555
lfemur -64.5077 0.502692 -31.3278
ltibia 72.1249
lfoot -27.6711 19.0966
ltoes -3.70396
213
root 28.7974 14.9811 -27.4689 18.173 -44.0743 0.94786
lowerback 40.9849 -2.76905 3.31995
upperback 18.5131 -3.47486 -1.49603
thorax 0.772601 -1.81935 -2.12831
lowerneck -2.58814 2.98231 2.07399
upperneck -31.8845 3.32313 -2.29638
head -9.56692 1.23644 -1.35113
rclavicle -2.14687e-014 -6.20208e-014
rhumerus -2.97444 24.2006 -70.4615
rradius 108.12
rwrist -0.830135
rhand -35.2266 -10.8896
rfingers 7.12502
rthumb -8.36347 -40.704
lclavicle -2.14687e-014 -6.20208e-014
lhumerus 65.7925 0.994624 37.5779
lradius 74.8821
lwrist 55.7726
lhand -34.1598 13.9016
lfingers 7.12502
lthumb -7.33383 43.7545
rfemur -69.0773 -0.911516 16.7233
rtibia 82.0956
rfoot -22.7439 -7.97424
rtoes -21.362
lfemur -64.4515 0.412267 -31.5158
ltibia 72.2317
lfoot -27.7847 19.1309
ltoes -3.60111
214
root 28.8067 14.9664 -27.4535 17.9934 -44.0442 1.09387
lowerback 41.0712 -2.78369 3.3256
upperback 18.6088 -3.49864 -1.55852
thorax 0.850003 -1.82548 -2.18999
lowerneck -2.54299 2.94038 2.11847
upperneck -32.0059 3.27361 -2.26065
head -9.62194 1.20033 -1.34545
rclavicle 8.66701e-014 -1.3418e-014
rhumerus -2.72082 24.1296 -70.3077
rradius 108.243
rwrist -1.01112
rhand -35.2113 -10.9745
rfingers 7.12502
rthumb -8.34872 -40.7895
lclavicle 8.66701e-014 -1.3418e-014
lhumerus 66.0116 1.2909 37.2277
lradius 74.7995
lwrist 55.9336
lhand -34.1184 13.9866
lfingers 7.12502
lthumb -7.29386 43.8409
rfemur -69.6943 -0.96709 16.3966
rtibia 83.0237
rfoot -21.5777 -7.57237
rtoes -21.7645
lfemur -64.3818 0.329335 -31.7033
ltibia 72.3318
lfoot -27.897 19.165
ltoes -3.50243
